<svg width="627" height="360" viewBox="0 0 627 360" fill="none" xmlns="http://www.w3.org/2000/svg">
<g clip-path="url(#clip0)">
<path d="M135.854 319.556C153.862 319.556 168.461 304.967 168.461 286.972C168.461 268.976 153.862 254.388 135.854 254.388C117.845 254.388 103.246 268.976 103.246 286.972C103.246 304.967 117.845 319.556 135.854 319.556Z" fill="#F2F2F2"/>
<path d="M141.156 314.787C159.164 314.787 173.763 300.199 173.763 282.203C173.763 264.208 159.164 249.619 141.156 249.619C123.147 249.619 108.548 264.208 108.548 282.203C108.548 300.199 123.147 314.787 141.156 314.787Z" fill="#1890FF"/>
<path d="M570.859 246.15H167.416V247.25H570.859V246.15Z" fill="#3F3D56"/>
<path d="M376.36 10.2587H233.162V7.30945H168.231V10.2587H24.4433C23.1713 10.2587 21.9118 10.5091 20.7366 10.9955C19.5614 11.4819 18.4936 12.1949 17.5941 13.0937C16.6947 13.9925 15.9812 15.0595 15.4944 16.2339C15.0077 17.4082 14.7571 18.6669 14.7571 19.9379V215.877C14.7571 218.444 15.7776 220.906 17.5941 222.722C19.4107 224.537 21.8744 225.557 24.4433 225.557H376.36C378.929 225.557 381.392 224.537 383.209 222.722C385.026 220.906 386.046 218.444 386.046 215.877V19.9379C386.046 18.6669 385.796 17.4082 385.309 16.2339C384.822 15.0595 384.108 13.9925 383.209 13.0937C382.31 12.1949 381.242 11.4819 380.067 10.9955C378.891 10.5091 377.632 10.2587 376.36 10.2587V10.2587Z" fill="#3F3D56"/>
<path d="M373.06 27.3646H27.7434V222.017H373.06V27.3646Z" fill="#1890FF"/>
<path d="M200.106 22.0559C202.062 22.0559 203.648 20.4713 203.648 18.5167C203.648 16.5621 202.062 14.9776 200.106 14.9776C198.15 14.9776 196.565 16.5621 196.565 18.5167C196.565 20.4713 198.15 22.0559 200.106 22.0559Z" fill="#1890FF"/>
<path opacity="0.1" d="M274.305 222.018H27.7435V27.3648L274.305 222.018Z" fill="black"/>
<path d="M81.775 207.451C100.107 207.451 114.968 192.601 114.968 174.283C114.968 155.964 100.107 141.114 81.775 141.114C63.4431 141.114 48.5822 155.964 48.5822 174.283C48.5822 192.601 63.4431 207.451 81.775 207.451Z" fill="#F2F2F2"/>
<path d="M312.934 132.342H280.678V139.078H312.934V132.342Z" fill="#3F3D56"/>
<path d="M351.931 79.9037H241.682V82.7902H351.931V79.9037Z" fill="#3F3D56"/>
<path d="M351.931 89.0444H241.682V91.9309H351.931V89.0444Z" fill="#3F3D56"/>
<path d="M351.931 98.1851H241.682V101.072H351.931V98.1851Z" fill="#3F3D56"/>
<path d="M351.931 107.326H241.682V110.212H351.931V107.326Z" fill="#3F3D56"/>
<path d="M351.931 116.466H241.682V119.353H351.931V116.466Z" fill="#3F3D56"/>
<path d="M351.931 31.3137H338.451V44.7842H351.931V31.3137Z" fill="#F2F2F2"/>
<path d="M358.19 51.0384H341.821V34.6813H358.19V51.0384ZM342.532 50.3272H357.478V35.3925H342.532V50.3272Z" fill="#3F3D56"/>
<path d="M395.742 218.478H362.041V216.052C362.041 215.989 362.029 215.926 362.004 215.868C361.98 215.809 361.945 215.756 361.9 215.712C361.855 215.667 361.802 215.632 361.744 215.607C361.685 215.583 361.623 215.571 361.56 215.571H350.005C349.942 215.571 349.879 215.583 349.821 215.607C349.763 215.632 349.709 215.667 349.665 215.712C349.62 215.756 349.585 215.809 349.56 215.868C349.536 215.926 349.524 215.989 349.524 216.052V218.478H342.302V216.052C342.302 215.989 342.29 215.926 342.266 215.868C342.241 215.809 342.206 215.756 342.161 215.712C342.116 215.667 342.063 215.632 342.005 215.607C341.947 215.583 341.884 215.571 341.821 215.571H330.266C330.203 215.571 330.14 215.583 330.082 215.607C330.024 215.632 329.97 215.667 329.926 215.712C329.881 215.756 329.846 215.809 329.821 215.868C329.797 215.926 329.785 215.989 329.785 216.052V218.478H322.563V216.052C322.563 215.989 322.551 215.926 322.527 215.868C322.502 215.809 322.467 215.756 322.422 215.712C322.378 215.667 322.324 215.632 322.266 215.607C322.208 215.583 322.145 215.571 322.082 215.571H310.527C310.464 215.571 310.401 215.583 310.343 215.607C310.285 215.632 310.232 215.667 310.187 215.712C310.142 215.756 310.107 215.809 310.083 215.868C310.058 215.926 310.046 215.989 310.046 216.052V218.478H302.824V216.052C302.824 215.989 302.812 215.926 302.788 215.868C302.763 215.809 302.728 215.756 302.683 215.712C302.639 215.667 302.585 215.632 302.527 215.607C302.469 215.583 302.406 215.571 302.343 215.571H290.788C290.725 215.571 290.662 215.583 290.604 215.607C290.546 215.632 290.493 215.667 290.448 215.712C290.403 215.756 290.368 215.809 290.344 215.868C290.319 215.926 290.307 215.989 290.307 216.052V218.478H283.085V216.052C283.085 215.989 283.073 215.926 283.049 215.868C283.025 215.809 282.989 215.756 282.944 215.712C282.9 215.667 282.847 215.632 282.788 215.607C282.73 215.583 282.667 215.571 282.604 215.571H271.049C270.986 215.571 270.924 215.583 270.865 215.607C270.807 215.632 270.754 215.667 270.709 215.712C270.664 215.756 270.629 215.809 270.605 215.868C270.58 215.926 270.568 215.989 270.568 216.052V218.478H263.346V216.052C263.346 215.989 263.334 215.926 263.31 215.868C263.286 215.809 263.25 215.756 263.205 215.712C263.161 215.667 263.108 215.632 263.049 215.607C262.991 215.583 262.928 215.571 262.865 215.571H251.31C251.247 215.571 251.185 215.583 251.126 215.607C251.068 215.632 251.015 215.667 250.97 215.712C250.925 215.756 250.89 215.809 250.866 215.868C250.841 215.926 250.829 215.989 250.829 216.052V218.478H243.607V216.052C243.607 215.989 243.595 215.926 243.571 215.868C243.547 215.809 243.511 215.756 243.466 215.712C243.422 215.667 243.369 215.632 243.31 215.607C243.252 215.583 243.189 215.571 243.126 215.571H152.616C152.553 215.571 152.49 215.583 152.431 215.607C152.373 215.632 152.32 215.667 152.275 215.712C152.231 215.756 152.195 215.809 152.171 215.868C152.147 215.926 152.134 215.989 152.134 216.052V218.478H144.913V216.052C144.913 215.989 144.9 215.926 144.876 215.868C144.852 215.809 144.816 215.756 144.772 215.712C144.727 215.667 144.674 215.632 144.616 215.607C144.557 215.583 144.495 215.571 144.431 215.571H132.877C132.814 215.571 132.751 215.583 132.693 215.607C132.634 215.632 132.581 215.667 132.536 215.712C132.492 215.756 132.456 215.809 132.432 215.868C132.408 215.926 132.395 215.989 132.395 216.052V218.478H125.174V216.052C125.174 215.989 125.161 215.926 125.137 215.868C125.113 215.809 125.077 215.756 125.033 215.712C124.988 215.667 124.935 215.632 124.877 215.607C124.818 215.583 124.756 215.571 124.692 215.571H113.138C113.075 215.571 113.012 215.583 112.954 215.607C112.895 215.632 112.842 215.667 112.797 215.712C112.753 215.756 112.717 215.809 112.693 215.868C112.669 215.926 112.656 215.989 112.656 216.052V218.478H105.435V216.052C105.435 215.989 105.422 215.926 105.398 215.868C105.374 215.809 105.339 215.756 105.294 215.712C105.249 215.667 105.196 215.632 105.138 215.607C105.079 215.583 105.017 215.571 104.953 215.571H93.3989C93.3357 215.571 93.2731 215.583 93.2147 215.607C93.1562 215.632 93.1032 215.667 93.0585 215.712C93.0138 215.756 92.9783 215.809 92.9541 215.868C92.9299 215.926 92.9175 215.989 92.9175 216.052V218.478H85.6959V216.052C85.6959 215.989 85.6835 215.926 85.6593 215.868C85.6351 215.809 85.5996 215.756 85.5549 215.712C85.5102 215.667 85.4571 215.632 85.3987 215.607C85.3403 215.583 85.2777 215.571 85.2145 215.571H73.66C73.5967 215.571 73.5341 215.583 73.4757 215.607C73.4173 215.632 73.3642 215.667 73.3195 215.712C73.2748 215.756 73.2394 215.809 73.2152 215.868C73.191 215.926 73.1785 215.989 73.1785 216.052V218.478H65.957V216.052C65.957 215.989 65.9445 215.926 65.9203 215.868C65.8961 215.809 65.8607 215.756 65.816 215.712C65.7712 215.667 65.7182 215.632 65.6598 215.607C65.6013 215.583 65.5387 215.571 65.4755 215.571H53.921C53.8578 215.571 53.7952 215.583 53.7368 215.607C53.6784 215.632 53.6253 215.667 53.5806 215.712C53.5359 215.756 53.5004 215.809 53.4762 215.868C53.452 215.926 53.4396 215.989 53.4396 216.052V218.478H46.218V216.052C46.218 215.989 46.2056 215.926 46.1814 215.868C46.1572 215.809 46.1217 215.756 46.077 215.712C46.0323 215.667 45.9792 215.632 45.9208 215.607C45.8624 215.583 45.7998 215.571 45.7366 215.571H34.1821C34.1188 215.571 34.0562 215.583 33.9978 215.607C33.9394 215.632 33.8863 215.667 33.8416 215.712C33.7969 215.756 33.7615 215.809 33.7373 215.868C33.7131 215.926 33.7006 215.989 33.7006 216.052V218.478H11.5545C8.49006 218.478 5.55113 219.695 3.38424 221.86C1.21735 224.025 2.9195e-06 226.962 0 230.024V235.245C8.7585e-06 238.308 1.21736 241.244 3.38425 243.41C5.55114 245.575 8.49007 246.791 11.5545 246.791H395.742C398.806 246.791 401.745 245.575 403.912 243.41C406.079 241.244 407.296 238.308 407.296 235.245V230.024C407.296 226.962 406.079 224.025 403.912 221.86C401.745 219.695 398.806 218.478 395.742 218.478Z" fill="#3F3D56"/>
<path d="M89.8096 194.999C81.5363 194.999 73.4488 192.548 66.5698 187.955C59.6909 183.362 54.3293 176.834 51.1633 169.196C47.9973 161.558 47.1689 153.153 48.7829 145.045C50.3969 136.936 54.3809 129.488 60.231 123.642C66.0811 117.796 73.5345 113.815 81.6489 112.202C89.7632 110.589 98.1739 111.417 105.817 114.581C113.461 117.745 119.994 123.102 124.59 129.976C129.187 136.85 131.64 144.932 131.64 153.199C131.627 164.282 127.216 174.906 119.374 182.743C111.532 190.579 100.9 194.987 89.8096 194.999ZM89.8096 112.499C81.754 112.499 73.8794 114.886 67.1814 119.358C60.4835 123.831 55.263 130.187 52.1803 137.624C49.0976 145.061 48.291 153.244 49.8626 161.14C51.4341 169.035 55.3132 176.287 61.0094 181.979C66.7055 187.671 73.9628 191.547 81.8636 193.117C89.7644 194.688 97.9538 193.882 105.396 190.801C112.838 187.721 119.2 182.504 123.675 175.811C128.15 169.118 130.539 161.249 130.539 153.199C130.527 142.409 126.232 132.064 118.596 124.433C110.961 116.803 100.608 112.511 89.8096 112.499V112.499Z" fill="#3F3D56"/>
<path d="M462.981 17.8988H322.629V18.9988H462.981V17.8988Z" fill="#3F3D56"/>
<path d="M627 308.3H223.557V309.4H627V308.3Z" fill="#3F3D56"/>
<path d="M246.398 358.9H106.047V360H246.398V358.9Z" fill="#3F3D56"/>
<path d="M274.65 302.501H259.239V317.901H274.65V302.501Z" fill="#1890FF"/>
<path d="M284.007 309.101H265.293V290.401H284.007V309.101ZM266.107 308.288H283.193V291.214H266.107V308.288Z" fill="#3F3D56"/>
<path d="M453.53 12.1H438.119V27.5001H453.53V12.1Z" fill="#1890FF"/>
<path d="M462.887 18.7001H444.173V0H462.887V18.7001ZM444.987 17.887H462.073V0.813048H444.987V17.887Z" fill="#3F3D56"/>
<path d="M608.743 302.501H593.331V317.901H608.743V302.501Z" fill="#1890FF"/>
<path d="M618.1 309.101H599.386V290.401H618.1V309.101ZM600.2 308.288H617.286V291.214H600.2V308.288Z" fill="#3F3D56"/>
<path d="M581.867 127.577H580.558V91.7384C580.558 89.0145 580.021 86.3172 578.978 83.8006C577.935 81.284 576.406 78.9973 574.478 77.0712C572.551 75.145 570.263 73.6171 567.744 72.5747C565.226 71.5323 562.526 70.9958 559.8 70.9958H483.816C481.09 70.9958 478.391 71.5323 475.872 72.5747C473.354 73.6171 471.065 75.145 469.138 77.0712C467.21 78.9973 465.681 81.2839 464.638 83.8006C463.595 86.3172 463.058 89.0145 463.058 91.7384V288.354C463.058 291.078 463.595 293.775 464.638 296.292C465.681 298.808 467.21 301.095 469.138 303.021C471.065 304.947 473.354 306.475 475.872 307.518C478.391 308.56 481.09 309.097 483.816 309.097H559.801C562.526 309.097 565.226 308.56 567.744 307.518C570.263 306.475 572.551 304.947 574.478 303.021C576.406 301.095 577.935 298.808 578.978 296.292C580.021 293.775 580.558 291.078 580.558 288.354V153.088H581.867V127.577Z" fill="#3F3D56"/>
<path d="M576.138 92.9576V289.286C576.139 293.395 574.506 297.335 571.599 300.241C568.693 303.146 564.75 304.779 560.638 304.78H484.287C480.176 304.779 476.233 303.146 473.326 300.241C470.42 297.335 468.787 293.395 468.788 289.286V92.9576C468.788 88.85 470.421 84.9108 473.328 82.0064C476.234 79.1019 480.177 77.47 484.287 77.4695H493.55C493.094 78.5869 492.921 79.7992 493.044 80.9996C493.167 82.1999 493.584 83.3516 494.258 84.353C494.932 85.3544 495.842 86.1749 496.907 86.7422C497.973 87.3095 499.162 87.6061 500.37 87.6061H543.901C545.108 87.6062 546.297 87.3095 547.363 86.7422C548.429 86.1749 549.339 85.3544 550.013 84.353C550.686 83.3516 551.103 82.1999 551.227 80.9996C551.35 79.7992 551.176 78.5869 550.72 77.4695H560.639C564.749 77.47 568.691 79.1019 571.598 82.0064C574.504 84.9108 576.137 88.85 576.138 92.9576V92.9576Z" fill="#1890FF"/>
<path d="M533.835 206.92H511.091V213.656H533.835V206.92Z" fill="#3F3D56"/>
<path d="M561.332 154.482H483.593V157.368H561.332V154.482Z" fill="#3F3D56"/>
<path d="M561.332 163.622H483.593V166.509H561.332V163.622Z" fill="#3F3D56"/>
<path d="M561.332 172.763H483.593V175.65H561.332V172.763Z" fill="#3F3D56"/>
<path d="M561.332 181.904H483.593V184.79H561.332V181.904Z" fill="#3F3D56"/>
<path d="M561.332 191.044H483.593V193.931H561.332V191.044Z" fill="#3F3D56"/>
<path d="M525.178 116.149H511.698V129.619H525.178V116.149Z" fill="#F2F2F2"/>
<path d="M516.859 119.517V135.874H533.227V119.517H516.859ZM532.517 135.165H517.569V120.227H532.517V135.165Z" fill="#3F3D56"/>
<path opacity="0.1" d="M576.138 268.32V289.286C576.139 293.395 574.506 297.335 571.599 300.241C568.693 303.146 564.75 304.779 560.638 304.78H484.287C480.176 304.779 476.233 303.146 473.326 300.241C470.42 297.335 468.787 293.395 468.788 289.286V183.57L533.113 234.352L534.214 235.221L546.18 244.665L547.297 245.55L576.138 268.32Z" fill="black"/>
<path d="M515.858 298.417C529.193 298.417 540.003 287.615 540.003 274.29C540.003 260.965 529.193 250.162 515.858 250.162C502.523 250.162 491.713 260.965 491.713 274.29C491.713 287.615 502.523 298.417 515.858 298.417Z" fill="#F2F2F2"/>
<path d="M176.222 360C166.752 360 157.494 357.194 149.619 351.936C141.744 346.678 135.607 339.205 131.983 330.461C128.358 321.718 127.41 312.097 129.258 302.815C131.105 293.533 135.666 285.007 142.363 278.315C149.06 271.623 157.592 267.065 166.881 265.219C176.169 263.373 185.797 264.32 194.547 267.942C203.297 271.564 210.776 277.697 216.037 285.566C221.299 293.435 224.107 302.686 224.107 312.15C224.093 324.836 219.043 336.999 210.066 345.969C201.089 354.94 188.918 359.986 176.222 360ZM176.222 265.4C166.969 265.4 157.924 268.142 150.231 273.279C142.537 278.415 136.541 285.717 133 294.259C129.459 302.802 128.532 312.202 130.337 321.27C132.142 330.339 136.598 338.669 143.141 345.207C149.684 351.745 158.02 356.198 167.095 358.002C176.171 359.806 185.577 358.88 194.126 355.341C202.675 351.803 209.981 345.811 215.122 338.123C220.263 330.435 223.006 321.396 223.006 312.15C222.992 299.755 218.059 287.872 209.288 279.108C200.518 270.344 188.626 265.414 176.222 265.4V265.4Z" fill="#3F3D56"/>
<path d="M522.975 292.9C516.987 292.9 511.135 291.126 506.156 287.802C501.178 284.478 497.298 279.753 495.007 274.226C492.716 268.698 492.116 262.616 493.284 256.748C494.452 250.88 497.335 245.49 501.569 241.26C505.803 237.029 511.197 234.148 517.069 232.981C522.941 231.814 529.028 232.413 534.559 234.702C540.091 236.992 544.819 240.869 548.145 245.844C551.471 250.818 553.247 256.667 553.247 262.65C553.238 270.67 550.045 278.359 544.37 284.03C538.695 289.701 531 292.891 522.975 292.9V292.9ZM522.975 233.5C517.205 233.5 511.565 235.209 506.768 238.412C501.971 241.615 498.232 246.168 496.024 251.494C493.816 256.821 493.238 262.682 494.364 268.337C495.49 273.991 498.268 279.185 502.347 283.262C506.427 287.339 511.625 290.115 517.284 291.24C522.942 292.364 528.808 291.787 534.138 289.581C539.468 287.375 544.024 283.638 547.23 278.845C550.435 274.051 552.146 268.415 552.146 262.65C552.137 254.921 549.061 247.512 543.592 242.047C538.123 236.582 530.709 233.508 522.975 233.5Z" fill="#3F3D56"/>
</g>
<defs>
<clipPath id="clip0">
<rect width="627" height="360" fill="white"/>
</clipPath>
</defs>
</svg>
